<svg width="20" height="21" viewBox="0 0 20 21" fill="none" xmlns="http://www.w3.org/2000/svg">
<path d="M12.7583 7.50786C15.0921 9.92997 15.0601 13.8132 12.7723 16.1982C12.768 16.203 12.763 16.2083 12.7583 16.2132L10.1333 18.9346C7.81804 21.3349 4.0513 21.3345 1.73642 18.9346C-0.578807 16.5347 -0.578807 12.6292 1.73642 10.2293L3.18587 8.72659C3.57024 8.3281 4.23219 8.59295 4.25204 9.15611C4.27735 9.8738 4.40149 10.5949 4.63055 11.2912C4.70813 11.5269 4.6527 11.7877 4.48278 11.9639L3.97157 12.4939C2.87681 13.6289 2.84247 15.4769 3.92645 16.623C5.02114 17.7804 6.82043 17.7873 7.92351 16.6437L10.5485 13.9226C11.6497 12.781 11.6451 10.9357 10.5485 9.7988C10.4039 9.6492 10.2583 9.53297 10.1446 9.45178C10.0641 9.39449 9.99765 9.31849 9.95053 9.22986C9.90342 9.14122 9.87693 9.0424 9.87319 8.94127C9.85773 8.51333 10.004 8.07236 10.3301 7.7342L11.1526 6.88153C11.3682 6.65795 11.7065 6.63049 11.9566 6.81143C12.243 7.01876 12.5113 7.2518 12.7583 7.50786V7.50786ZM18.2635 1.80009C15.9486 -0.599867 12.1819 -0.600191 9.86667 1.80009L7.24168 4.52151C7.23699 4.52637 7.23191 4.53163 7.22762 4.53649C4.93989 6.92146 4.90782 10.8047 7.24168 13.2268C7.48866 13.4829 7.7569 13.7159 8.04328 13.9232C8.29336 14.1042 8.63171 14.0767 8.84734 13.8531L9.66976 13.0004C9.99593 12.6623 10.1422 12.2213 10.1267 11.7934C10.123 11.6922 10.0965 11.5934 10.0494 11.5048C10.0023 11.4161 9.93581 11.3402 9.85534 11.2829C9.74159 11.2017 9.59597 11.0854 9.4514 10.9358C8.3548 9.79896 8.35019 7.95366 9.4514 6.812L12.0764 4.09098C13.1795 2.94738 14.9787 2.95426 16.0734 4.11163C17.1574 5.25771 17.1231 7.10577 16.0283 8.24074L15.5171 8.77073C15.3472 8.9469 15.2918 9.2077 15.3693 9.44347C15.5984 10.1398 15.7226 10.8608 15.7479 11.5785C15.7677 12.1417 16.4297 12.4065 16.814 12.008L18.2635 10.5054C20.5787 8.10552 20.5787 4.19996 18.2635 1.80009V1.80009Z" fill="#0060DF"/>
</svg>
